<?xml version="1.0" standalone="no"?>
<!DOCTYPE svg PUBLIC "-//W3C//DTD SVG 20010904//EN"
 "http://www.w3.org/TR/2001/REC-SVG-20010904/DTD/svg10.dtd">
<svg version="1.0" xmlns="http://www.w3.org/2000/svg"
 width="256.000000pt" height="256.000000pt" viewBox="0 0 256.000000 256.000000"
 preserveAspectRatio="xMidYMid meet">
<metadata>
Created by potrace 1.14, written by Peter Selinger 2001-2017
</metadata>
<g transform="translate(0.000000,256.000000) scale(0.100000,-0.100000)"
fill="#000000" stroke="none">
<path d="M421 2174 c-77 -32 -101 -83 -101 -211 l0 -98 -92 1 c-127 2 -174
-19 -212 -93 -14 -28 -16 -86 -16 -490 0 -518 0 -517 76 -564 35 -21 51 -24
142 -24 l102 0 0 -95 c0 -116 19 -165 76 -201 35 -21 51 -24 140 -24 95 0 103
2 138 28 73 56 71 47 73 387 1 168 2 311 2 318 1 9 115 12 534 12 l532 0 -1
-308 c0 -169 3 -318 8 -332 5 -14 19 -36 31 -50 40 -45 73 -55 176 -55 83 0
101 3 134 24 59 36 77 82 77 198 l0 98 93 0 c50 0 103 4 117 7 37 10 85 58 98
97 9 24 12 171 12 488 0 400 -2 458 -16 486 -39 75 -86 96 -212 92 l-92 -3 0
97 c0 121 -22 173 -87 207 -36 19 -56 22 -138 19 -80 -2 -100 -6 -128 -25 -70
-48 -72 -58 -74 -399 -1 -168 -2 -309 -2 -314 -1 -4 -240 -6 -533 -5 l-532 3
-1 300 c-1 165 -2 310 -3 322 -2 25 -53 87 -86 105 -29 17 -198 18 -235 2z"/>
</g>
</svg>
